<svg width="224" height="50" viewBox="0 0 224 50" fill="none" xmlns="http://www.w3.org/2000/svg">
<g clip-path="url(#clip0_1040_559)">
<path d="M34.8791 43.1325C33.7967 42.776 33.1036 42.5125 32.8155 42.3187C32.5196 42.1327 32.3716 41.8614 32.3716 41.5049C32.3716 40.7066 32.9635 40.3113 34.1549 40.3113C34.7857 40.3113 35.8681 40.3965 37.4022 40.5748L37.5813 38.7689L36.9895 38.6526C35.7435 38.4278 34.7234 38.3193 33.9213 38.3193C32.7454 38.3193 31.8187 38.5906 31.1413 39.1487C30.4638 39.699 30.1289 40.5438 30.1289 41.6677C30.1289 42.559 30.3859 43.2643 30.9076 43.7681C31.4216 44.2719 32.3171 44.7059 33.5787 45.0702C34.373 45.3028 34.9025 45.5198 35.175 45.7135C35.4398 45.9151 35.5722 46.1863 35.5722 46.5429C35.5722 47.5117 34.9959 48 33.8434 48C33.0725 48 31.9511 47.8992 30.4949 47.6977L30.2691 49.4726L30.8609 49.5889C32.0913 49.8524 33.127 49.9842 33.9758 49.9842C35.1205 49.9842 36.0472 49.6819 36.7559 49.0774C37.4645 48.4728 37.8149 47.5737 37.8149 46.3879C37.8149 45.4578 37.5969 44.7757 37.1608 44.3262C36.7247 43.8766 35.9616 43.4813 34.8791 43.1248" fill="white"/>
<path d="M50.3833 44.5594H48.5689V40.4825H50.3833C50.9596 40.4825 51.3879 40.6375 51.6526 40.9398C51.9252 41.2421 52.0653 41.7459 52.0653 42.4357C52.0653 43.8541 51.5047 44.5594 50.3833 44.5594ZM50.3989 38.5293H46.3184V49.7989H48.5689V46.5203H50.3989C51.6916 46.5203 52.6805 46.1715 53.3502 45.4662C54.0199 44.7609 54.3548 43.7533 54.3548 42.4434C54.3548 39.8392 53.0388 38.5293 50.3989 38.5293Z" fill="white"/>
<path d="M68.551 47.14C68.2317 47.7213 67.6321 48.0081 66.7443 48.0081C65.8566 48.0081 65.257 47.7135 64.9377 47.14C64.6184 46.5587 64.4549 45.5898 64.4549 44.2257C64.4549 42.8616 64.6184 41.8695 64.9455 41.2494C65.2726 40.6294 65.8722 40.3193 66.7443 40.3193C67.6165 40.3193 68.2161 40.6294 68.5432 41.2494C68.8703 41.8695 69.0338 42.8616 69.0338 44.2257C69.0338 45.5898 68.8703 46.5587 68.551 47.14ZM66.7443 38.3274C65.0545 38.3274 63.8709 38.8079 63.1778 39.7768C62.4847 40.7456 62.1421 42.226 62.1421 44.2102C62.1421 46.1944 62.4847 47.6593 63.1778 48.5971C63.8709 49.5272 65.0623 50 66.7443 50C68.4264 50 69.6178 49.535 70.3109 48.5971C71.004 47.6593 71.3466 46.2021 71.3466 44.2102C71.3466 42.2183 71.004 40.7456 70.3109 39.7768C69.6178 38.8079 68.4264 38.3274 66.7443 38.3274Z" fill="white"/>
<path d="M85.5196 43.5673C85.2549 43.9006 84.8577 44.0633 84.3282 44.0633H82.2412V40.4825H84.297C84.8188 40.4825 85.2237 40.6452 85.4963 40.963C85.7766 41.2886 85.909 41.7149 85.909 42.2574C85.909 42.8 85.7766 43.234 85.5196 43.5673ZM88.214 42.2419C88.214 39.7694 86.9058 38.5293 84.297 38.5293H79.9829V49.7989H82.2334V46.0165H84.4061L85.6987 49.7989H88.1673L86.5865 45.4895C87.6767 44.7919 88.2218 43.7145 88.2218 42.2419" fill="white"/>
<path d="M95.8066 38.5293V40.5522H98.7814V49.7989H101.032V40.5522H103.975V38.5293H95.8066Z" fill="white"/>
<path d="M116.232 43.1325C115.15 42.776 114.457 42.5125 114.169 42.3187C113.873 42.1327 113.732 41.8614 113.732 41.5049C113.732 40.7066 114.324 40.3113 115.516 40.3113C116.147 40.3113 117.229 40.3965 118.763 40.5748L118.942 38.7689L118.35 38.6526C117.112 38.4278 116.084 38.3193 115.282 38.3193C114.106 38.3193 113.18 38.5906 112.502 39.1487C111.825 39.699 111.49 40.5438 111.49 41.6677C111.49 42.559 111.747 43.2643 112.268 43.7681C112.782 44.2719 113.678 44.7059 114.94 45.0702C115.734 45.3028 116.263 45.5198 116.536 45.7135C116.801 45.9151 116.933 46.1863 116.933 46.5429C116.933 47.5117 116.357 48 115.204 48C114.433 48 113.312 47.8992 111.856 47.6977L111.63 49.4726L112.222 49.5889C113.452 49.8524 114.496 49.9842 115.344 49.9842C116.489 49.9842 117.408 49.6819 118.117 49.0774C118.825 48.4728 119.176 47.5737 119.176 46.3879C119.176 45.4578 118.958 44.7757 118.522 44.3262C118.086 43.8766 117.33 43.4813 116.24 43.1248" fill="white"/>
<path d="M140.739 40.6446C141.042 40.4508 141.556 40.3501 142.265 40.3501C142.974 40.3501 143.877 40.4353 144.951 40.5981L145.014 38.7767C143.783 38.4744 142.701 38.3271 141.766 38.3271C140.147 38.3271 139.033 38.7534 138.426 39.6138C137.818 40.4664 137.515 41.9855 137.515 44.1635C137.515 45.2021 137.577 46.0624 137.694 46.7522C137.811 47.4343 138.029 48.0311 138.348 48.5426C138.659 49.0542 139.095 49.4184 139.656 49.651C140.209 49.8835 140.949 49.9998 141.876 49.9998C142.802 49.9998 143.838 49.8757 144.998 49.62L144.944 47.7443C143.931 47.8993 142.974 47.9768 142.078 47.9768C141.182 47.9768 140.583 47.7288 140.279 47.225C139.975 46.7212 139.827 45.8221 139.827 44.5122C139.827 43.2024 139.898 42.2878 140.046 41.7452C140.193 41.2027 140.419 40.8384 140.723 40.6446" fill="white"/>
<path d="M153.525 38.5293V49.7989H159.849V47.7759H155.784V38.5293H153.525Z" fill="white"/>
<path d="M173.959 46.0398C173.959 47.3574 173.297 48.0162 171.981 48.0162C170.665 48.0162 170.003 47.3574 170.003 46.0398V38.5293H167.745V45.9855C167.745 47.3651 168.096 48.3805 168.796 49.0238C169.497 49.6671 170.556 49.9926 171.974 49.9926C173.391 49.9926 174.45 49.6671 175.151 49.0238C175.852 48.3805 176.202 47.3651 176.202 45.9855V38.5293H173.944V46.0398H173.959Z" fill="white"/>
<path d="M190.631 47.5433C190.398 47.7371 190.032 47.8379 189.541 47.8379H187.485V45.0864H189.541C190.499 45.0864 190.982 45.5436 190.982 46.4427C190.982 46.9775 190.865 47.3341 190.631 47.5356M187.485 40.4747H189.479C190.343 40.4747 190.772 40.9242 190.772 41.8155C190.772 42.7069 190.351 43.1564 189.502 43.1564H187.493V40.4669L187.485 40.4747ZM192.921 44.9003C192.687 44.5051 192.321 44.195 191.838 43.9935C192.282 43.7067 192.602 43.3734 192.789 43.0092C192.975 42.6371 193.069 42.1411 193.069 41.5055C193.069 40.4514 192.781 39.6996 192.205 39.2268C191.628 38.7618 190.764 38.5215 189.611 38.5215H185.25V49.7911H189.674C190.818 49.7911 191.706 49.5275 192.337 48.9927C192.968 48.4657 193.287 47.6519 193.287 46.559C193.287 45.8537 193.17 45.3034 192.936 44.9003" fill="white"/>
<path d="M0 31.9025C0 32.5148 0.475022 32.9953 1.07464 32.9953H42.4093L43.445 30.8174H1.07464C0.475022 30.8174 0 31.2979 0 31.9102" fill="white"/>
<path d="M0.560681 28.2669H14.1494C19.4993 28.2669 22.2871 25.2054 22.2871 21.1905C22.2871 19.4466 21.7809 18.0437 20.7296 16.9586C19.7173 16.0983 17.0541 15.4782 15.3409 15.0907L7.42124 13.6723C6.02733 13.4398 5.56009 12.7267 5.56009 12.2539C5.56009 11.7811 5.79371 11.3161 6.95401 11.3161H6.61916L20.0054 11.3083C21.594 11.3083 22.2793 10.386 22.2793 8.77383V6.22384C22.2793 5.91381 22.0301 5.65804 21.7186 5.65804H8.13767C2.78783 5.65804 0 8.71958 0 12.7345C0 14.4784 0.513958 15.8813 1.55745 16.9586C2.56979 17.8189 5.22524 18.4468 6.94622 18.8265L14.8658 20.2449C16.2598 20.4774 16.727 21.1905 16.727 21.6633C16.727 22.1361 16.4934 22.6012 15.3331 22.6012H15.6679H2.28166C0.685277 22.6167 0 23.539 0 25.1511V27.7011C0 28.0189 0.249192 28.2669 0.560681 28.2669Z" fill="white"/>
<path d="M62.7184 5.65029H59.4088C58.3731 5.65029 57.7579 5.86731 57.353 6.92141L52.3692 18.2607L46.3885 6.49512C46.1783 5.86731 45.3528 5.65029 44.5274 5.65029H38.1029C37.4877 5.65029 37.2775 5.86731 36.8725 6.30135L30.0976 13.7188V0.573554C30.0976 0.255774 29.8484 0 29.537 0H27.0217C26.3753 0 25.8458 0.116261 25.4409 0.364285C24.849 0.720818 24.522 1.35638 24.522 4.51868V16.0905H24.5298V27.7011C24.5298 28.0189 24.779 28.2747 25.0904 28.2747H27.6057C28.2521 28.2747 28.7816 28.1584 29.1943 27.9104C29.7861 27.5539 30.1132 26.9183 30.1132 23.756V16.5091L37.5968 27.4376C37.9939 28.0577 38.4222 28.2747 39.0374 28.2747H43.3827C43.4605 28.2747 43.5929 28.2592 43.7253 28.2204C43.8655 28.1817 43.9589 28.1429 44.0368 28.0809C44.3405 27.7864 44.3794 27.1431 43.9979 26.5928L36.0549 14.9124L41.0154 9.23113L49.2854 24.7713L47.6111 28.2824L46.6689 30.2279L45.8902 31.8323C45.7033 32.2353 45.7033 32.6693 45.7033 32.8864C45.7033 33.5142 46.1004 33.925 46.7234 33.925H50.0252C50.8584 33.925 51.2789 33.5142 51.4892 32.8864L52.7118 30.2279L53.5995 28.2824L63.3725 6.92916C63.7775 5.87506 63.3725 5.65804 62.7418 5.65804" fill="white"/>
<path d="M222.925 30.8174H55.5777L54.542 32.9953H222.925C223.525 32.9953 224 32.5148 224 31.9102C224 31.3057 223.525 30.8174 222.925 30.8174Z" fill="white"/>
<path d="M202.274 28.2669H215.862C221.212 28.2669 224 25.2054 224 21.1905C224 19.4466 223.494 18.0437 222.443 16.9586C221.43 16.0983 218.767 15.4705 217.054 15.0907L209.134 13.6723C207.74 13.4398 207.273 12.7267 207.273 12.2539C207.273 11.7811 207.507 11.3161 208.667 11.3161H208.332L221.718 11.3083C223.307 11.3083 223.992 10.386 223.992 8.77383V6.22384C223.992 5.91381 223.743 5.65804 223.432 5.65804H209.843C204.493 5.65804 201.705 8.71958 201.705 12.7345C201.705 14.4784 202.219 15.8813 203.263 16.9664C204.275 17.8267 206.93 18.4545 208.651 18.8343L216.571 20.2527C217.965 20.4852 218.432 21.1983 218.432 21.6711C218.432 22.1439 218.198 22.6089 217.038 22.6089H217.373L203.987 22.6167C202.398 22.6167 201.713 23.539 201.713 25.1511V27.7011C201.713 28.0112 201.962 28.2669 202.274 28.2669Z" fill="white"/>
<path d="M124.276 28.2669H137.865C143.215 28.2669 146.003 25.2054 146.003 21.1905C146.003 19.4466 145.489 18.0437 144.445 16.9586C143.433 16.0983 140.77 15.4705 139.057 15.0907L131.137 13.6723C129.743 13.4398 129.276 12.7267 129.276 12.2539C129.276 11.7811 129.51 11.3161 130.67 11.3161H130.335L143.721 11.3083C145.31 11.3083 145.995 10.386 145.995 8.77383V6.22384C145.995 5.91381 145.746 5.65804 145.434 5.65804H131.846C126.496 5.65804 123.708 8.71958 123.708 12.7345C123.708 14.4784 124.222 15.8813 125.265 16.9664C126.278 17.8267 128.933 18.4545 130.654 18.8343L138.574 20.2527C139.968 20.4852 140.435 21.1983 140.435 21.6711C140.435 22.1439 140.201 22.6089 139.041 22.6089H139.376L125.99 22.6167C124.401 22.6167 123.716 23.539 123.716 25.1511V27.7011C123.716 28.0112 123.965 28.2669 124.276 28.2669Z" fill="white"/>
<path d="M168.282 12.2617C168.282 11.7889 168.516 11.3238 169.676 11.3238H169.341L178.382 11.3161H178.047C179.208 11.3238 179.441 11.7966 179.441 12.2617C179.441 12.7267 178.982 13.4398 177.58 13.68L173.858 14.3466L169.661 15.0984C169.248 15.1914 168.781 15.3 168.282 15.424V12.2694V12.2617ZM170.852 28.2669H184.441C184.752 28.2669 185.001 28.0112 185.001 27.6934V25.1434C185.001 24.4923 184.885 23.9498 184.643 23.539C184.293 22.9344 183.67 22.6089 182.728 22.6089H169.341H169.676C168.516 22.6089 168.282 22.1361 168.282 21.6633C168.282 21.1905 168.749 20.4852 170.143 20.2449L173.858 19.5784L178.055 18.8265C179.768 18.439 182.432 17.8189 183.444 16.9586C184.487 15.8735 185.001 14.4706 185.001 12.7267C185.001 11.8974 184.877 11.1068 184.643 10.3705C183.732 7.57247 181.1 5.65029 176.864 5.65029H170.852C166.616 5.65029 163.984 7.58022 163.073 10.3705C162.839 11.0991 162.714 11.8974 162.714 12.7267V21.1828C162.714 22.0121 162.831 22.8027 163.073 23.5312C163.984 26.3292 166.608 28.2592 170.852 28.2592" fill="white"/>
<path d="M115.033 21.6633C115.033 22.1361 114.8 22.6011 113.639 22.6011H113.974L104.941 22.6089H105.276C104.115 22.6011 103.882 22.1284 103.882 21.6633C103.882 21.1983 104.341 20.4852 105.743 20.2449L109.465 19.5784L113.663 18.8265C114.075 18.7335 114.543 18.625 115.033 18.501V21.6556V21.6633ZM113.172 13.6723L109.458 14.3389L105.26 15.0907C103.547 15.4782 100.884 16.0983 99.8714 16.9664C98.8279 18.0515 98.314 19.4543 98.314 21.1983C98.314 22.0276 98.4386 22.8182 98.6722 23.5545C99.5833 26.3525 102.215 28.2747 106.452 28.2747H112.463C116.7 28.2747 119.332 26.3525 120.243 23.5545C120.476 22.8259 120.601 22.0276 120.601 21.1983V12.7422C120.601 11.9129 120.484 11.1223 120.243 10.3937C119.332 7.59572 116.707 5.66579 112.463 5.66579H98.8746C98.5632 5.66579 98.314 5.92156 98.314 6.23159V8.78158C98.314 9.4404 98.4308 9.9752 98.6722 10.3937C99.0226 10.9983 99.6456 11.3238 100.588 11.3238H113.974H113.639C114.8 11.3238 115.033 11.7966 115.033 12.2694C115.033 12.7422 114.566 13.4475 113.172 13.6878" fill="white"/>
<path d="M189.362 28.2669H191.878C192.524 28.2669 193.054 28.1507 193.459 27.9027C194.05 27.5461 194.377 26.9106 194.377 23.756V12.1842C194.401 11.7424 194.666 11.3161 195.771 11.3161H195.437L197.671 11.3083C199.268 11.3083 199.945 10.386 199.945 8.77383V6.22384C199.945 5.91381 199.696 5.65804 199.385 5.65804H196.947C191.597 5.65804 188.81 8.71958 188.81 12.7345V27.7011C188.81 28.0189 189.059 28.2747 189.37 28.2747" fill="white"/>
<path d="M149.165 27.6934C149.165 28.0112 149.414 28.2669 149.725 28.2669H152.241C152.887 28.2669 153.416 28.1507 153.821 27.9026C154.413 27.5461 154.74 26.9106 154.74 23.7483V12.1842C154.764 11.7424 155.028 11.3161 156.134 11.3161H155.799H158.042C159.631 11.3161 160.316 10.3937 160.316 8.78158V6.23159C160.316 5.91381 160.067 5.66579 159.755 5.66579H157.263H154.74V0.573554C154.74 0.255774 154.491 0 154.18 0H151.664C151.018 0 150.488 0.116261 150.076 0.364285C149.484 0.720818 149.165 1.35638 149.165 4.51868V16.0828V27.6934Z" fill="white"/>
<path d="M56.8781 28.3909H60.9976C62.1423 28.3909 62.8276 27.9259 63.287 26.9958L69.2365 13.525C70.1554 11.4323 70.607 10.975 71.7518 10.975H72.2112V27.6934C72.2112 28.1584 72.437 28.3909 72.8965 28.3909H78.0049C79.1497 28.3909 79.8349 27.9259 80.2944 26.9958L86.2438 13.525C87.1627 11.4323 87.6144 10.975 88.7591 10.975H89.2186V27.6934C89.2186 28.1584 89.4444 28.3909 89.9038 28.3909H93.338C94.7086 28.3909 95.8611 27.6934 95.8611 26.0735V6.33235C95.8611 5.86731 95.4016 5.63478 94.7163 5.63478H88.7669C85.1069 5.63478 82.5916 7.26244 81.4469 9.81243L78.8537 15.2224V6.3246C78.8537 5.85955 78.3943 5.62703 77.709 5.62703H71.7596C68.0996 5.62703 65.5843 7.25469 64.4396 9.80468L56.2007 26.9881C55.7412 27.9181 56.2007 28.3832 56.8859 28.3832" fill="white"/>
</g>
<defs>
<clipPath id="clip0_1040_559">
<rect width="224" height="50" fill="white"/>
</clipPath>
</defs>
</svg>
